<?xml version="1.0" standalone="no"?>
<!DOCTYPE svg PUBLIC "-//W3C//DTD SVG 20010904//EN"
 "http://www.w3.org/TR/2001/REC-SVG-20010904/DTD/svg10.dtd">
<svg version="1.0" xmlns="http://www.w3.org/2000/svg"
 width="300.000000pt" height="164.000000pt" viewBox="0 0 300.000000 164.000000"
 preserveAspectRatio="xMidYMid meet">
<metadata>
Created by potrace 1.10, written by Peter Selinger 2001-2011
</metadata>
<g transform="translate(0.000000,164.000000) scale(0.100000,-0.100000)"
fill="#000000" stroke="none">
<path d="M1232 1298 c-9 -12 -19 -65 -25 -130 -1 -14 -12 -37 -23 -50 -36 -39
-47 -70 -50 -145 -3 -73 -4 -74 -52 -122 -49 -49 -82 -104 -82 -138 0 -55 69
-84 109 -44 18 18 19 16 23 -83 5 -114 19 -150 72 -191 l35 -27 248 4 c227 3
251 5 282 23 56 33 71 74 71 194 l0 104 23 -21 c40 -38 95 -24 112 28 10 31
-28 102 -84 157 l-51 50 0 68 c0 75 -20 128 -56 152 -19 12 -22 19 -13 34 6
13 6 25 -1 38 -5 11 -10 36 -10 55 0 25 -6 38 -19 46 -30 16 -496 14 -509 -2z
m503 -18 c4 -6 -13 -10 -44 -10 -27 0 -53 -4 -56 -10 -4 -6 15 -10 49 -10 31
0 56 -4 56 -10 0 -6 -92 -10 -255 -10 -163 0 -255 4 -255 10 0 6 25 10 55 10
30 0 55 5 55 10 0 6 -25 10 -56 10 -34 0 -53 4 -49 10 4 6 98 10 250 10 152 0
246 -4 250 -10z m15 -85 c26 -32 1 -35 -266 -35 -249 0 -264 1 -264 18 0 10 3
22 7 25 3 4 120 7 258 7 209 0 255 -3 265 -15z m-481 -82 c-6 -16 -20 -77 -30
-137 -13 -78 -26 -120 -44 -147 -23 -36 -25 -47 -25 -154 l0 -115 34 0 c32 0
33 -1 32 -40 -1 -51 28 -91 81 -109 35 -13 43 -12 73 3 27 13 40 14 67 5 24
-8 42 -8 64 0 24 8 35 7 55 -5 31 -21 88 -20 119 0 36 24 58 72 50 112 -6 33
-5 34 25 34 l30 0 0 121 c0 104 -3 124 -19 146 -19 23 -24 42 -55 203 -8 41
-17 83 -21 93 -10 25 25 23 59 -4 54 -43 56 -56 57 -353 1 -308 -1 -319 -71
-361 -32 -19 -52 -20 -265 -20 -265 0 -282 4 -316 78 -17 38 -19 68 -19 300 0
280 4 304 56 352 15 14 37 25 50 25 22 0 23 -2 13 -27z m366 -6 c7 -18 16 -56
20 -84 l7 -53 -172 0 -173 0 6 53 c4 29 11 67 17 83 l11 30 135 1 136 2 13
-32z m-322 -14 c-4 -21 -8 -60 -8 -88 l0 -50 183 -3 c213 -3 204 -8 181 105
-13 60 -13 73 -2 73 19 0 29 -31 48 -150 10 -68 25 -121 41 -149 21 -38 24
-56 24 -146 l0 -102 -37 -7 c-50 -8 -447 -8 -506 0 l-46 7 6 111 c3 65 11 117
18 126 18 21 32 71 50 178 16 97 28 132 46 132 6 0 7 -14 2 -37z m-199 -388
c-21 -32 -60 -43 -81 -22 -26 25 -8 79 45 138 l47 53 3 -72 c2 -54 -1 -78 -14
-97z m778 123 c44 -54 58 -81 58 -110 0 -52 -42 -62 -83 -20 -24 25 -27 36
-27 100 0 40 4 72 9 72 5 0 24 -19 43 -42z m-612 -305 c0 -49 23 -73 71 -73
44 0 69 27 69 73 0 19 4 27 13 24 21 -7 11 -68 -17 -96 -65 -65 -188 4 -161
90 10 32 25 21 25 -18z m444 21 c18 -46 -12 -106 -62 -125 -26 -10 -92 5 -92
21 0 14 18 21 25 10 3 -5 21 -10 40 -10 46 0 79 41 70 87 -6 34 8 46 19 17z
m-384 -14 c27 -27 25 -33 -5 -26 -24 6 -25 5 -13 -14 16 -25 20 -25 44 1 18
20 18 21 -6 39 l-24 18 37 -1 c32 -1 37 -4 37 -26 0 -53 -62 -80 -102 -44 -22
20 -25 73 -3 73 8 0 24 -9 35 -20z m200 6 c0 -25 -41 -66 -66 -66 -14 0 -23 4
-19 10 3 5 11 7 18 4 15 -5 42 35 30 46 -4 5 -17 10 -28 13 -11 3 -1 5 23 6
29 1 42 -3 42 -13z m30 -11 c0 -30 -47 -83 -75 -86 -37 -3 -55 1 -55 11 0 6
15 10 34 10 38 0 76 36 76 71 0 11 5 19 10 19 6 0 10 -11 10 -25z m90 14 c0 6
7 11 15 11 21 0 20 -64 -1 -84 -16 -17 -69 -22 -78 -8 -12 20 7 52 31 52 15 0
23 -5 20 -12 -2 -7 -13 -12 -23 -10 -18 3 -18 3 -2 -14 17 -17 18 -17 32 1 17
24 10 45 -15 45 -19 0 -25 11 -12 23 3 4 12 2 20 -4 9 -9 13 -8 13 0z"/>
<path d="M1335 847 c-10 -8 -16 -23 -13 -38 2 -19 9 -24 33 -24 25 0 31 4 33
27 4 34 -26 54 -53 35z"/>
<path d="M1596 844 c-27 -27 -12 -64 26 -64 19 0 42 35 33 50 -14 23 -43 30
-59 14z"/>
<path d="M1226 792 c-4 -18 -6 -59 -5 -90 2 -31 0 -64 -5 -72 -7 -11 -4 -11 9
2 20 19 30 116 17 163 l-9 30 -7 -33z"/>
<path d="M1440 790 c0 -5 11 -17 24 -25 19 -13 29 -14 45 -5 12 6 21 17 21 25
0 19 -10 19 -24 -1 -12 -15 -46 -10 -46 7 0 5 -4 9 -10 9 -5 0 -10 -4 -10 -10z"/>
<path d="M1312 758 c-27 -27 0 -58 52 -58 31 0 61 37 44 57 -6 7 -18 13 -26
13 -13 0 -12 -3 4 -15 16 -13 17 -16 4 -25 -8 -5 -24 -10 -35 -10 -11 0 -27 5
-35 10 -13 9 -12 12 4 25 11 8 15 15 10 15 -6 0 -15 -5 -22 -12z"/>
<path d="M1572 758 c-7 -7 -12 -16 -12 -21 0 -17 34 -36 62 -37 25 0 58 22 58
39 0 13 -24 31 -39 30 -10 0 -6 -4 8 -10 19 -8 21 -12 11 -24 -14 -17 -57 -20
-79 -6 -12 8 -12 12 -2 25 16 19 10 21 -7 4z"/>
</g>
</svg>
